<svg width="289" height="167" viewBox="0 0 289 167" fill="none" xmlns="http://www.w3.org/2000/svg">
<path d="M20.4362 77.4154L0 0.545948L6.98322 0.545948L21.155 56.997L35.4296 0.545948L42.3101 0.545948L21.8739 77.4154H20.4362Z" fill="black"/>
<path d="M49.7145 76.9787L49.7145 0.545948L56.3896 0.545948L56.3896 76.9787H49.7145Z" fill="black"/>
<path d="M102.89 76.9787H95.8042L82.9674 32.7569C89.4371 30.9007 92.9288 26.3147 92.9288 19.3266C92.9288 11.4649 88.3075 7.20651 79.6812 7.20651L74.3411 7.20651L74.3411 76.9787H67.6659L67.6659 0.545948L79.8866 0.545948C92.3126 0.545948 99.6039 7.31571 99.6039 18.999C99.6039 26.5331 96.5231 31.9926 90.0533 35.5958L102.89 76.9787Z" fill="black"/>
<path d="M111.291 76.9787L111.291 0.545948L117.966 0.545948L117.966 76.9787H111.291Z" fill="black"/>
<path d="M182.644 38.7623C182.644 62.784 169.601 76.9787 147.727 76.9787L129.242 76.9787V0.545948L147.727 0.545948C169.601 0.545948 182.644 14.6314 182.644 38.7623ZM175.66 38.7623C175.66 18.4531 165.699 7.20651 147.727 7.20651L135.918 7.20651V70.3181H147.727C165.699 70.3181 175.66 59.0716 175.66 38.7623Z" fill="black"/>
<path d="M192.323 76.9787V0.545948L198.998 0.545948V76.9787H192.323Z" fill="black"/>
<path d="M206.392 76.9787L226.725 0L228.368 0L248.702 76.9787H241.718L238.74 64.8586L216.25 64.8586L213.272 76.9787H206.392ZM217.996 58.5256H237.097L227.547 19.3266L217.996 58.5256Z" fill="black"/>
<path d="M282.088 76.9787V30.6823L262.781 12.666V76.9787H256.106V0L257.955 0L282.088 22.1655V0.545948L288.763 0.545948V76.9787H282.088Z" fill="black"/>
<path d="M0 127.307C0 103.503 14.3772 87.9984 36.4565 87.9984C58.5358 87.9984 72.913 103.503 72.913 127.307C72.913 151.11 58.5358 166.615 36.4565 166.615C14.3772 166.615 0 151.11 0 127.307ZM6.88052 127.307C6.88052 147.288 18.3823 159.954 36.4565 159.954C54.5307 159.954 65.9298 147.288 65.9298 127.307C65.9298 107.216 54.5307 94.659 36.4565 94.659C18.3823 94.659 6.88052 107.216 6.88052 127.307Z" fill="black"/>
<path d="M75.7884 165.523L96.1219 88.5444H97.7651L118.098 165.523H111.115L108.137 153.403H85.6471L82.669 165.523H75.7884ZM87.3929 147.07H106.494L96.9435 107.871L87.3929 147.07Z" fill="black"/>
<path d="M125.503 165.523L125.503 89.0903L132.178 89.0903V141.065L154.976 89.0903H162.268L148.198 119.991L163.5 165.523H156.517L144.399 127.853L127.351 165.523H125.503Z" fill="black"/>
</svg>
